<svg width="260" height="74" viewBox="0 0 260 74" fill="none" xmlns="http://www.w3.org/2000/svg">
<path d="M13.6353 67.5564C13.508 69.3417 12.8377 70.748 11.6413 71.7754C10.445 72.8027 8.86677 73.3164 6.89826 73.3164C4.75157 73.3164 3.06306 72.6006 1.84123 71.1691C0.610916 69.7374 0 67.7669 0 65.2658V64.2469C0 62.6468 0.280003 61.2405 0.848494 60.0279C1.41699 58.8152 2.22305 57.8805 3.27519 57.232C4.32732 56.5836 5.54915 56.2552 6.94917 56.2552C8.87525 56.2552 10.4365 56.7689 11.6159 57.7962C12.7953 58.8236 13.4741 60.2637 13.6608 62.1163H10.2159C10.131 61.0468 9.83405 60.2636 9.31647 59.7836C8.79889 59.3036 8.00979 59.0594 6.95765 59.0594C5.81219 59.0594 4.94672 59.4721 4.37823 60.2889C3.80974 61.1058 3.51277 62.3774 3.4958 64.0953V65.35C3.4958 67.1437 3.76731 68.4574 4.31884 69.2827C4.87036 70.108 5.72734 70.529 6.90674 70.529C7.96736 70.529 8.76495 70.2848 9.29101 69.8048C9.81708 69.3248 10.1141 68.5753 10.1904 67.5648H13.6353V67.5564Z" fill="#F5FFF9"/>
<path d="M22.6718 63.8426C22.2221 63.7837 21.8233 63.75 21.4754 63.75C20.2196 63.75 19.3966 64.1711 19.0063 65.0132V73.0891H15.6887V60.7521H18.8281L18.9214 62.2258C19.5917 61.0889 20.5081 60.5247 21.6875 60.5247C22.0524 60.5247 22.4003 60.5752 22.7227 60.6763L22.6803 63.8426H22.6718Z" fill="#F5FFF9"/>
<path d="M24.2415 57.5605C24.2415 57.0636 24.4112 56.6594 24.7421 56.3394C25.073 56.0194 25.5312 55.8594 26.0997 55.8594C26.6682 55.8594 27.1179 56.0194 27.4573 56.3394C27.7967 56.6594 27.9664 57.0636 27.9664 57.5605C27.9664 58.0573 27.7967 58.4699 27.4573 58.7899C27.1179 59.11 26.6682 59.27 26.1082 59.27C25.5482 59.27 25.0985 59.11 24.7591 58.7899C24.4197 58.4699 24.25 58.0573 24.25 57.5605H24.2415ZM27.7712 73.0891H24.4366V60.7521H27.7712V73.0891Z" fill="#F5FFF9"/>
<path d="M33.6173 60.7521L33.7192 62.1331C34.6016 61.0637 35.7895 60.5247 37.2913 60.5247C38.895 60.5247 39.9895 61.1479 40.592 62.4026C41.4659 61.1479 42.7132 60.5247 44.3253 60.5247C45.6744 60.5247 46.6757 60.9121 47.3375 61.6953C47.9993 62.4784 48.3218 63.649 48.3218 65.2153V73.0975H44.9872V65.2321C44.9872 64.5332 44.8514 64.0195 44.5714 63.6995C44.2914 63.3795 43.8078 63.2111 43.112 63.2111C42.1193 63.2111 41.4235 63.6826 41.0417 64.6258V73.0975H37.7325V65.2406C37.7325 64.5248 37.5883 64.0111 37.3083 63.6911C37.0283 63.3711 36.5446 63.2111 35.8574 63.2111C34.9155 63.2111 34.2367 63.5984 33.8125 64.3732V73.0975H30.4949V60.7605H33.6089L33.6173 60.7521Z" fill="#F5FFF9"/>
<path d="M50.8503 57.5605C50.8503 57.0636 51.02 56.6594 51.3509 56.3394C51.6818 56.0194 52.14 55.8594 52.7085 55.8594C53.277 55.8594 53.7267 56.0194 54.0661 56.3394C54.4055 56.6594 54.5751 57.0636 54.5751 57.5605C54.5751 58.0573 54.4055 58.4699 54.0661 58.7899C53.7267 59.11 53.277 59.27 52.7169 59.27C52.1569 59.27 51.7072 59.11 51.3678 58.7899C51.0285 58.4699 50.8587 58.0573 50.8587 57.5605H50.8503ZM54.38 73.0891H51.0454V60.7521H54.38V73.0891Z" fill="#F5FFF9"/>
<path d="M60.1667 60.7521L60.2686 62.1753C61.1595 61.0721 62.3474 60.5247 63.8407 60.5247C65.1559 60.5247 66.1401 60.9121 66.785 61.6784C67.4298 62.4447 67.7608 63.59 67.7692 65.1227V73.0975H64.4516V65.2069C64.4516 64.5079 64.2989 64.0026 63.9934 63.6826C63.688 63.3626 63.1789 63.2111 62.4662 63.2111C61.5328 63.2111 60.8286 63.6069 60.3619 64.3984V73.0975H57.0443V60.7605H60.1667V60.7521Z" fill="#F5FFF9"/>
<path d="M77.493 73.0891C77.3403 72.7943 77.2299 72.4238 77.1621 71.9859C76.356 72.8785 75.3123 73.3164 74.0226 73.3164C72.8008 73.3164 71.7996 72.9627 70.9935 72.2638C70.1874 71.5648 69.7887 70.6806 69.7887 69.6196C69.7887 68.3143 70.2808 67.3122 71.2566 66.6132C72.2323 65.9142 73.6408 65.5606 75.4905 65.5521H77.0178V64.8448C77.0178 64.2721 76.8736 63.8174 76.5766 63.4805C76.2796 63.1437 75.813 62.9668 75.1766 62.9668C74.6166 62.9668 74.1754 63.1016 73.8614 63.3626C73.5475 63.6237 73.3863 63.9942 73.3863 64.4574H70.0687C70.0687 63.7416 70.2893 63.0847 70.739 62.47C71.1887 61.8553 71.8081 61.3837 72.6226 61.0384C73.4372 60.6931 74.3451 60.5163 75.3548 60.5163C76.8906 60.5163 78.1039 60.8952 79.0033 61.6616C79.9027 62.4279 80.3524 63.4974 80.3524 64.8869V70.2343C80.3524 71.4048 80.5221 72.2891 80.8445 72.8954V73.0891H77.493ZM74.7439 70.7985C75.236 70.7985 75.6857 70.689 76.1015 70.4701C76.5172 70.2511 76.8227 69.9648 77.0178 69.5943V67.4722H75.779C74.116 67.4722 73.2335 68.0448 73.1232 69.1816V69.3753C73.1148 69.788 73.259 70.1248 73.5475 70.3943C73.836 70.6638 74.2348 70.7901 74.7439 70.7901V70.7985Z" fill="#F5FFF9"/>
<path d="M86.4107 73.0891H83.0761V55.5731H86.4107V73.0891Z" fill="#F5FFF9"/>
<path d="M98.892 73.0891H95.4471V56.4826H98.892V73.0891Z" fill="#F5FFF9"/>
<path d="M105.536 67.2364V73.0891H102.091V56.4826H108.616C109.872 56.4826 110.975 56.7099 111.933 57.1647C112.892 57.6194 113.622 58.2678 114.131 59.11C114.64 59.9521 114.903 60.9037 114.903 61.9816C114.903 63.6068 114.343 64.8953 113.223 65.83C112.103 66.7648 110.55 67.2364 108.565 67.2364H105.536ZM105.536 64.4658H108.616C109.524 64.4658 110.219 64.2553 110.703 63.8258C111.187 63.3963 111.424 62.79 111.424 61.9984C111.424 61.2068 111.187 60.5247 110.703 60.0279C110.219 59.531 109.558 59.27 108.701 59.2531H105.544V64.4658H105.536Z" fill="#F5FFF9"/>
<path d="M160.501 52.7857H141.13V72.6428H131.042V24.0527H162.928V32.1623H141.13V44.7098H160.501V52.7857Z" fill="#36EC7F"/>
<path d="M168.774 72.6512V24.0527H183.843C188.145 24.0527 191.997 25.0127 195.391 26.9411C198.785 28.8696 201.441 31.6065 203.342 35.1518C205.242 38.7055 206.201 42.7308 206.201 47.253V49.493C206.201 54.0067 205.268 58.0236 203.393 61.5437C201.518 65.0637 198.879 67.7837 195.476 69.7206C192.065 71.6575 188.222 72.6343 183.937 72.6596H168.766L168.774 72.6512ZM178.863 32.1623V64.609H183.742C187.687 64.609 190.699 63.329 192.787 60.7689C194.874 58.2089 195.934 54.5457 195.985 49.7877V47.2193C195.985 42.2761 194.95 38.5371 192.888 35.9855C190.827 33.4338 187.806 32.1623 183.843 32.1623H178.863Z" fill="#36EC7F"/>
<path d="M238.928 59.9015C238.928 58.0068 238.257 56.5583 236.908 55.5478C235.559 54.5373 233.141 53.4678 229.645 52.3393C226.149 51.2193 223.375 50.1077 221.338 49.0214C215.781 46.0403 212.998 42.0234 212.998 36.9707C212.998 34.3433 213.744 32.0023 215.238 29.9475C216.731 27.8927 218.869 26.2843 221.661 25.1222C224.452 23.9685 227.583 23.3874 231.062 23.3874C234.541 23.3874 237.672 24.019 240.413 25.2738C243.145 26.5285 245.274 28.3054 246.785 30.5959C248.295 32.8865 249.059 35.4886 249.059 38.4108H238.97C238.97 36.1876 238.266 34.4528 236.849 33.2233C235.432 31.9854 233.455 31.3707 230.892 31.3707C228.33 31.3707 226.506 31.8844 225.14 32.9202C223.774 33.956 223.086 35.3202 223.086 37.0128C223.086 38.596 223.884 39.9181 225.488 40.9876C227.091 42.0571 229.45 43.0592 232.564 43.994C238.3 45.7119 242.483 47.834 245.113 50.3688C247.735 52.9036 249.05 56.0615 249.05 59.851C249.05 64.0532 247.447 67.3543 244.239 69.7459C241.032 72.1375 236.713 73.3333 231.291 73.3333C227.524 73.3333 224.096 72.6512 220.999 71.2785C217.902 69.9059 215.543 68.0364 213.923 65.6532C212.293 63.27 211.487 60.5163 211.487 57.3752H221.61C221.61 62.7395 224.834 65.4174 231.3 65.4174C233.701 65.4174 235.568 64.9374 236.917 63.969C238.266 63.0005 238.936 61.6531 238.936 59.91L238.928 59.9015Z" fill="#36EC7F"/>
<path d="M207.033 10.4778C203.69 9.97251 200.847 12.7852 201.356 16.1115C201.679 18.1831 203.376 19.8674 205.463 20.1874C208.806 20.6926 211.649 17.88 211.139 14.5536C210.817 12.482 209.12 10.7978 207.033 10.4778Z" fill="#36EC7F"/>
<path d="M216.46 12.9199C214.601 12.4736 212.964 14.0989 213.413 15.9431C213.626 16.8105 214.338 17.5263 215.221 17.7368C217.079 18.1831 218.717 16.5579 218.267 14.7136C218.055 13.8462 217.342 13.1304 216.46 12.9199Z" fill="#36EC7F"/>
<path d="M246.208 7.31985C248.066 7.76617 249.704 6.14089 249.254 4.29665C249.042 3.42928 248.329 2.71348 247.447 2.50295C245.588 2.05663 243.951 3.68191 244.4 5.52614C244.613 6.39352 245.325 7.10932 246.208 7.31985Z" fill="#36EC7F"/>
<path d="M206.252 7.38722C207.618 7.38722 208.73 6.28405 208.73 4.92824C208.73 3.57244 207.618 2.46926 206.252 2.46926C204.886 2.46926 203.775 3.57244 203.775 4.92824C203.775 6.28405 204.886 7.38722 206.252 7.38722Z" fill="#36EC7F"/>
<path d="M259.359 26.2675C258.689 25.3159 257.662 24.7769 256.593 24.7095C255.159 24.6085 253.87 23.8169 253.021 22.6716L252.156 21.5011C251.579 20.7263 251.231 19.8084 251.163 18.8653C251.961 17.9052 252.444 16.6758 252.444 15.3284C252.444 12.2546 249.933 9.76198 246.836 9.76198C244.434 9.76198 242.381 11.2694 241.583 13.3747C240.514 14.0231 239.259 14.3684 237.986 14.3684H236.026C234.1 14.3684 232.208 13.602 230.96 12.1452C230.027 11.0504 228.61 10.3767 227.049 10.4188C224.486 10.4862 222.348 12.5746 222.238 15.1178C222.119 17.9221 224.385 20.2379 227.185 20.2379C228.627 20.2379 229.917 19.6232 230.825 18.6463C232.174 17.1979 234.023 16.2884 236.017 16.28H237.994C239.293 16.28 240.531 16.6758 241.617 17.3494C242.432 19.421 244.46 20.8863 246.836 20.8863C247.455 20.8863 248.049 20.7853 248.6 20.6C249.542 20.9369 250.382 21.5179 250.993 22.3348L251.859 23.5137C252.733 24.6927 253.004 26.1917 252.716 27.6401C252.529 28.6085 252.724 29.6443 253.361 30.5033C254.591 32.1707 256.984 32.4991 258.63 31.1854C260.123 29.998 260.445 27.8085 259.351 26.259L259.359 26.2675Z" fill="#36EC7F"/>
<path d="M227.168 5.87983C229.162 5.87983 231.003 6.78932 232.352 8.23775C233.26 9.21461 234.549 9.82093 235.992 9.82093C238.283 9.82093 240.209 8.27986 240.769 6.18299C240.896 5.71141 240.956 5.21456 240.93 4.70929C240.828 2.1661 238.69 0.0776556 236.119 0.00186518C234.549 -0.0402406 233.141 0.641873 232.208 1.7282C231.3 2.78927 230.044 3.4798 228.678 3.77454C228.177 3.88402 227.66 3.94297 227.142 3.94297H225.182C224.181 3.94297 223.188 3.73244 222.289 3.32822C221.466 2.95769 220.719 2.42716 220.117 1.7282C219.183 0.633452 217.775 -0.0402406 216.205 0.00186518C213.855 0.0692344 211.869 1.82926 211.47 4.0777C211.436 4.28823 211.403 4.49034 211.394 4.70929C211.275 7.51354 213.541 9.82935 216.341 9.82935C217.783 9.82935 219.081 9.21461 219.981 8.24618C221.33 6.78932 223.171 5.88825 225.165 5.88825H227.142L227.168 5.87983Z" fill="#36EC7F"/>
</svg>
